<svg xmlns="http://www.w3.org/2000/svg" xmlns:xlink="http://www.w3.org/1999/xlink" width="2000" zoomAndPan="magnify" viewBox="0 0 1500 1499.999933" height="2000" preserveAspectRatio="xMidYMid meet" version="1.0"><defs><clipPath id="b00887b7a4"><path d="M 750 0 C 335.785156 0 0 335.785156 0 750 C 0 1164.214844 335.785156 1500 750 1500 C 1164.214844 1500 1500 1164.214844 1500 750 C 1500 335.785156 1164.214844 0 750 0 Z M 750 0 " clip-rule="nonzero"/></clipPath><clipPath id="c8310ab26e"><path d="M 0 0 L 1500 0 L 1500 1500 L 0 1500 Z M 0 0 " clip-rule="nonzero"/></clipPath><clipPath id="b8d5856aee"><path d="M 750 0 C 335.785156 0 0 335.785156 0 750 C 0 1164.214844 335.785156 1500 750 1500 C 1164.214844 1500 1500 1164.214844 1500 750 C 1500 335.785156 1164.214844 0 750 0 Z M 750 0 " clip-rule="nonzero"/></clipPath><clipPath id="b30daf92c3"><rect x="0" width="1500" y="0" height="1500"/></clipPath><clipPath id="97daec6351"><path d="M 40.988281 47.964844 L 1460 47.964844 L 1460 1452.035156 L 40.988281 1452.035156 Z M 40.988281 47.964844 " clip-rule="nonzero"/></clipPath><clipPath id="f4a5643c40"><path d="M 750 47.964844 C 358.421875 47.964844 40.988281 362.277344 40.988281 750 C 40.988281 1137.722656 358.421875 1452.035156 750 1452.035156 C 1141.578125 1452.035156 1459.011719 1137.722656 1459.011719 750 C 1459.011719 362.277344 1141.578125 47.964844 750 47.964844 Z M 750 47.964844 " clip-rule="nonzero"/></clipPath><clipPath id="e03a44e196"><path d="M 0.988281 0.964844 L 1419.199219 0.964844 L 1419.199219 1405.035156 L 0.988281 1405.035156 Z M 0.988281 0.964844 " clip-rule="nonzero"/></clipPath><clipPath id="2caebddde0"><path d="M 710 0.964844 C 318.421875 0.964844 0.988281 315.277344 0.988281 703 C 0.988281 1090.722656 318.421875 1405.035156 710 1405.035156 C 1101.578125 1405.035156 1419.011719 1090.722656 1419.011719 703 C 1419.011719 315.277344 1101.578125 0.964844 710 0.964844 Z M 710 0.964844 " clip-rule="nonzero"/></clipPath><clipPath id="c6cdc6ceeb"><rect x="0" width="1420" y="0" height="1406"/></clipPath><clipPath id="2080801f6a"><path d="M 90.214844 96.320312 L 1397 96.320312 L 1397 1389.746094 L 90.214844 1389.746094 Z M 90.214844 96.320312 " clip-rule="nonzero"/></clipPath><clipPath id="201ed491d9"><path d="M 743.355469 96.320312 C 382.636719 96.320312 90.214844 385.863281 90.214844 743.03125 C 90.214844 1100.203125 382.636719 1389.746094 743.355469 1389.746094 C 1104.074219 1389.746094 1396.496094 1100.203125 1396.496094 743.03125 C 1396.496094 385.863281 1104.074219 96.320312 743.355469 96.320312 Z M 743.355469 96.320312 " clip-rule="nonzero"/></clipPath><clipPath id="88c8315e8e"><path d="M 0.214844 0.320312 L 1306.558594 0.320312 L 1306.558594 1293.746094 L 0.214844 1293.746094 Z M 0.214844 0.320312 " clip-rule="nonzero"/></clipPath><clipPath id="c6b371d8bb"><path d="M 653.355469 0.320312 C 292.636719 0.320312 0.214844 289.863281 0.214844 647.03125 C 0.214844 1004.203125 292.636719 1293.746094 653.355469 1293.746094 C 1014.074219 1293.746094 1306.496094 1004.203125 1306.496094 647.03125 C 1306.496094 289.863281 1014.074219 0.320312 653.355469 0.320312 Z M 653.355469 0.320312 " clip-rule="nonzero"/></clipPath><clipPath id="8ec984c8d0"><rect x="0" width="1307" y="0" height="1294"/></clipPath><clipPath id="4cf39d0f81"><path d="M 408 418 L 1092 418 L 1092 1089.371094 L 408 1089.371094 Z M 408 418 " clip-rule="nonzero"/></clipPath><clipPath id="0dc83a84f5"><path d="M 605.375 215 L 894.875 215 L 894.875 607.742188 L 605.375 607.742188 Z M 605.375 215 " clip-rule="nonzero"/></clipPath></defs><rect x="-150" width="1800" fill="#ffffff" y="-149.999993" height="1799.99992" fill-opacity="1"/><rect x="-150" width="1800" fill="#ffffff" y="-149.999993" height="1799.99992" fill-opacity="1"/><g clip-path="url(#b00887b7a4)"><g transform="matrix(1, 0, 0, 1, 0, 0.000000000000112861)"><g clip-path="url(#b30daf92c3)"><g clip-path="url(#c8310ab26e)"><g clip-path="url(#b8d5856aee)"><rect x="-330" width="2160" fill="#c04343" height="2159.999904" y="-329.999985" fill-opacity="1"/></g></g></g></g></g><g clip-path="url(#97daec6351)"><g clip-path="url(#f4a5643c40)"><g transform="matrix(1, 0, 0, 1, 40, 47)"><g clip-path="url(#c6cdc6ceeb)"><g clip-path="url(#e03a44e196)"><g clip-path="url(#2caebddde0)"><path fill="#ffffff" d="M 0.988281 0.964844 L 1421.511719 0.964844 L 1421.511719 1405.035156 L 0.988281 1405.035156 Z M 0.988281 0.964844 " fill-opacity="1" fill-rule="nonzero"/></g></g></g></g></g></g><g clip-path="url(#2080801f6a)"><g clip-path="url(#201ed491d9)"><g transform="matrix(1, 0, 0, 1, 90, 96)"><g clip-path="url(#8ec984c8d0)"><g clip-path="url(#88c8315e8e)"><g clip-path="url(#c6b371d8bb)"><path fill="#234aa2" d="M 0.214844 0.320312 L 1308.796875 0.320312 L 1308.796875 1293.746094 L 0.214844 1293.746094 Z M 0.214844 0.320312 " fill-opacity="1" fill-rule="nonzero"/></g></g></g></g></g></g><g clip-path="url(#4cf39d0f81)"><path fill="#ffffff" d="M 1065.507812 427.449219 C 1038.761719 410.105469 1003.054688 417.71875 985.730469 444.445312 L 662.507812 942.664062 L 504.875 796.914062 C 481.476562 775.28125 445 776.707031 423.367188 800.105469 C 401.738281 823.488281 403.160156 860 426.558594 881.613281 L 633.53125 1072.972656 C 633.53125 1072.972656 639.472656 1078.085938 642.222656 1079.875 C 651.914062 1086.179688 662.796875 1089.179688 673.5625 1089.179688 C 692.445312 1089.179688 710.960938 1079.914062 722.019531 1062.875 L 1082.507812 507.222656 C 1099.847656 480.496094 1092.234375 444.773438 1065.507812 427.449219 Z M 1065.507812 427.449219 " fill-opacity="1" fill-rule="nonzero"/></g><path stroke-linecap="round" transform="matrix(0.75, 0, 0, 0.75, 272.933388, 691.87288)" fill="none" stroke-linejoin="miter" d="M 10.500275 10.497619 L 625.58887 10.497619 " stroke="#ffffff" stroke-width="21" stroke-opacity="1" stroke-miterlimit="4"/><path stroke-linecap="round" transform="matrix(-0.75, 0, 0, -0.75, 1176.2731, 1136.50313)" fill="none" stroke-linejoin="miter" d="M 10.499551 10.498966 L 1193.957986 10.498966 " stroke="#ffffff" stroke-width="21" stroke-opacity="1" stroke-miterlimit="4"/><path stroke-linecap="round" transform="matrix(-0.75, 0, 0, -0.75, 1176.270868, 1049.81473)" fill="none" stroke-linejoin="miter" d="M 10.501783 10.497765 L 523.335161 10.497765 " stroke="#ffffff" stroke-width="21" stroke-opacity="1" stroke-miterlimit="4"/><path stroke-linecap="round" transform="matrix(-0.75, 0, 0, -0.75, 1176.270412, 963.126521)" fill="none" stroke-linejoin="miter" d="M 10.501175 10.502029 L 438.933504 10.502029 " stroke="#ffffff" stroke-width="21" stroke-opacity="1" stroke-miterlimit="4"/><path stroke-linecap="round" transform="matrix(-0.75, -0.000000001309, 0.000000001309, -0.75, 1176.270052, 876.438193)" fill="none" stroke-linejoin="miter" d="M 10.500695 10.500924 L 358.401767 10.500924 " stroke="#ffffff" stroke-width="21" stroke-opacity="1" stroke-miterlimit="4"/><path stroke-linecap="round" transform="matrix(-0.75, -0.000000001309, 0.000000001309, -0.75, 1176.27262, 789.749912)" fill="none" stroke-linejoin="miter" d="M 10.498911 10.499884 L 289.488518 10.499883 " stroke="#ffffff" stroke-width="21" stroke-opacity="1" stroke-miterlimit="4"/><path fill="#ffffff" d="M 750.691406 416.027344 C 792.058594 416.027344 825.726562 382.359375 825.726562 340.992188 C 825.726562 299.625 792.058594 265.957031 750.691406 265.957031 C 709.324219 265.957031 675.65625 299.625 675.65625 340.992188 C 675.65625 382.359375 709.324219 416.027344 750.691406 416.027344 Z M 750.691406 278.984375 C 784.847656 278.984375 812.617188 306.753906 812.617188 340.910156 C 812.617188 375.070312 784.847656 402.839844 750.691406 402.839844 C 716.53125 402.839844 688.761719 375.070312 688.761719 340.910156 C 688.761719 306.753906 716.53125 278.984375 750.691406 278.984375 Z M 750.691406 278.984375 " fill-opacity="1" fill-rule="nonzero"/><g clip-path="url(#0dc83a84f5)"><path fill="#ffffff" d="M 836.621094 428.558594 C 844.238281 426.921875 852.183594 424.546875 856.851562 418.074219 C 862.339844 410.539062 861.113281 400.546875 860.046875 391.78125 C 859.390625 386.128906 858.65625 380.3125 859.882812 376.460938 C 861.03125 372.941406 864.878906 368.761719 868.648438 364.75 C 874.792969 358.113281 881.835938 350.660156 881.835938 340.992188 C 881.835938 331.328125 874.875 323.789062 868.648438 317.238281 C 864.878906 313.222656 861.03125 309.046875 859.882812 305.523438 C 858.65625 301.671875 859.308594 295.859375 860.046875 290.207031 C 861.113281 281.441406 862.339844 271.445312 856.851562 263.910156 C 851.28125 256.292969 841.371094 254.328125 832.6875 252.6875 C 827.117188 251.625 821.382812 250.476562 818.269531 248.183594 C 815.15625 245.890625 812.371094 240.890625 809.667969 235.976562 C 805.328125 228.113281 800.414062 219.183594 791.320312 216.234375 C 782.636719 213.367188 773.546875 217.628906 765.597656 221.316406 C 760.355469 223.773438 754.949219 226.230469 750.773438 226.230469 C 746.59375 226.230469 741.1875 223.691406 735.945312 221.316406 C 728 217.628906 718.988281 213.449219 710.226562 216.234375 C 701.132812 219.183594 696.21875 228.113281 691.875 235.976562 C 689.171875 240.890625 686.386719 245.890625 683.273438 248.183594 C 680.078125 250.476562 674.347656 251.625 668.859375 252.6875 C 660.09375 254.410156 650.179688 256.375 644.691406 263.910156 C 639.203125 271.445312 640.433594 281.441406 641.496094 290.207031 C 642.152344 295.859375 642.890625 301.671875 641.660156 305.523438 C 640.515625 309.046875 636.664062 313.222656 632.898438 317.238281 C 626.753906 323.871094 619.707031 331.328125 619.707031 340.992188 C 619.707031 350.660156 626.671875 358.195312 632.898438 364.75 C 636.664062 368.761719 640.515625 372.941406 641.660156 376.460938 C 642.890625 380.3125 642.234375 386.128906 641.496094 391.78125 C 640.433594 400.546875 639.203125 410.539062 644.691406 418.074219 C 649.199219 424.21875 656.570312 426.675781 663.859375 428.3125 L 606.519531 560.605469 C 605.375 563.144531 606.027344 566.175781 608.160156 568.0625 C 610.207031 569.945312 613.238281 570.273438 615.695312 568.960938 L 676.886719 535.214844 L 694.167969 602.957031 C 694.824219 605.660156 697.199219 607.625 699.984375 607.871094 C 700.148438 607.871094 700.3125 607.871094 700.476562 607.871094 C 703.097656 607.871094 705.472656 606.316406 706.457031 603.941406 L 750.035156 503.183594 L 793.613281 603.941406 C 794.679688 606.316406 797.054688 607.871094 799.59375 607.871094 C 799.757812 607.871094 799.921875 607.871094 800.085938 607.871094 C 802.871094 607.625 805.246094 605.660156 805.902344 602.957031 L 823.183594 535.214844 L 884.375 568.960938 C 886.832031 570.355469 889.863281 569.945312 891.914062 568.0625 C 893.960938 566.175781 894.617188 563.144531 893.550781 560.605469 Z M 655.097656 410.375 C 652.636719 407.015625 653.457031 400.054688 654.277344 393.335938 C 655.097656 386.292969 655.996094 379 653.867188 372.367188 C 651.820312 366.058594 646.902344 360.816406 642.152344 355.738281 C 637.402344 350.660156 632.488281 345.417969 632.488281 340.910156 C 632.488281 336.40625 637.402344 331.164062 642.152344 326.085938 C 646.902344 321.003906 651.820312 315.761719 653.867188 309.457031 C 655.996094 302.902344 655.097656 295.613281 654.277344 288.484375 C 653.457031 281.769531 652.636719 274.804688 655.097656 271.445312 C 657.636719 268.007812 664.515625 266.613281 671.234375 265.304688 C 678.195312 263.910156 685.324219 262.519531 690.894531 258.503906 C 696.382812 254.570312 699.820312 248.183594 703.261719 242.039062 C 706.621094 236.058594 710.0625 229.832031 714.15625 228.441406 C 714.8125 228.277344 715.46875 228.113281 716.203125 228.113281 C 720.054688 228.113281 725.214844 230.570312 730.292969 232.863281 C 736.847656 235.894531 743.5625 239.007812 750.609375 239.007812 C 757.652344 239.007812 764.453125 235.894531 770.921875 232.863281 C 776.984375 230.078125 783.292969 227.128906 787.0625 228.359375 C 791.238281 229.671875 794.679688 235.894531 797.957031 241.957031 C 801.3125 248.101562 804.835938 254.410156 810.324219 258.421875 C 815.8125 262.4375 823.023438 263.828125 829.984375 265.222656 C 836.703125 266.53125 843.582031 267.84375 846.121094 271.363281 C 848.578125 274.722656 847.761719 281.6875 846.941406 288.402344 C 846.121094 295.449219 845.21875 302.738281 847.351562 309.375 C 849.398438 315.679688 854.3125 320.921875 859.0625 326.003906 C 863.816406 331.082031 868.730469 336.324219 868.730469 340.828125 C 868.730469 345.335938 863.816406 350.578125 859.0625 355.65625 C 854.3125 360.734375 849.398438 365.976562 847.351562 372.285156 C 845.21875 378.835938 846.121094 386.128906 846.941406 393.253906 C 847.761719 399.972656 848.578125 406.933594 846.121094 410.292969 C 843.582031 413.734375 836.703125 415.125 829.984375 416.4375 C 823.023438 417.828125 815.894531 419.222656 810.324219 423.234375 C 804.835938 427.167969 801.394531 433.558594 797.957031 439.699219 C 794.597656 445.679688 791.15625 451.90625 787.0625 453.296875 C 783.210938 454.527344 776.984375 451.660156 770.921875 448.792969 C 764.371094 445.761719 757.652344 442.648438 750.609375 442.648438 C 743.5625 442.648438 736.765625 445.761719 730.292969 448.792969 C 724.230469 451.578125 717.925781 454.527344 714.15625 453.296875 C 709.980469 451.988281 706.539062 445.761719 703.261719 439.699219 C 699.902344 433.558594 696.382812 427.25 690.894531 423.234375 C 685.40625 419.222656 678.195312 417.828125 671.234375 416.4375 C 664.597656 415.207031 657.636719 413.816406 655.097656 410.375 Z M 702.113281 581.085938 L 687.453125 523.746094 C 686.960938 521.777344 685.566406 520.140625 683.683594 519.320312 C 681.800781 518.503906 679.671875 518.585938 677.949219 519.566406 L 626.097656 548.15625 L 676.722656 431.015625 C 679.261719 431.753906 681.554688 432.574219 683.109375 433.71875 C 686.222656 436.015625 689.007812 441.011719 691.710938 445.925781 C 696.054688 453.789062 700.96875 462.71875 710.0625 465.667969 C 712.027344 466.324219 714.074219 466.570312 716.121094 466.570312 C 721.691406 466.570312 727.179688 464.4375 732.339844 462.144531 L 742.910156 486.554688 Z M 822.285156 519.648438 C 820.480469 518.667969 818.351562 518.585938 816.550781 519.402344 C 814.667969 520.222656 813.273438 521.859375 812.78125 523.828125 L 798.121094 581.167969 L 744.464844 457.148438 C 746.675781 456.410156 748.804688 455.835938 750.691406 455.835938 C 754.867188 455.835938 760.273438 458.378906 765.515625 460.753906 C 773.464844 464.4375 782.554688 468.617188 791.238281 465.832031 C 800.332031 462.882812 805.246094 453.953125 809.585938 446.089844 C 812.289062 441.175781 815.074219 436.179688 818.1875 433.882812 C 819.582031 432.902344 821.464844 432.082031 823.59375 431.425781 L 874.136719 548.238281 Z M 822.285156 519.648438 " fill-opacity="1" fill-rule="nonzero"/></g><path stroke-linecap="round" transform="matrix(0.75, 0, 0, 0.75, 981.944949, 691.87288)" fill="none" stroke-linejoin="miter" d="M 10.500486 10.497619 L 248.609881 10.497619 " stroke="#ffffff" stroke-width="21" stroke-opacity="1" stroke-miterlimit="4"/><path stroke-linecap="round" transform="matrix(0.75, -0.000000000000001116, 0.000000000000001116, 0.75, 273.075888, 777.666585)" fill="none" stroke-linejoin="miter" d="M 10.497775 10.501846 L 145.815495 10.501846 " stroke="#ffffff" stroke-width="21" stroke-opacity="1" stroke-miterlimit="4"/><path stroke-linecap="round" transform="matrix(0.75, -0.000000000000001116, 0.000000000000001116, 0.75, 273.075888, 860.688194)" fill="none" stroke-linejoin="miter" d="M 10.497775 10.499076 L 140.435286 10.499076 " stroke="#ffffff" stroke-width="21" stroke-opacity="1" stroke-miterlimit="4"/><path stroke-linecap="round" transform="matrix(0.749991, -0.00374676, 0.00374676, 0.749991, 273.077501, 948.293226)" fill="none" stroke-linejoin="miter" d="M 10.500591 10.500162 L 234.159657 10.497699 " stroke="#ffffff" stroke-width="21" stroke-opacity="1" stroke-miterlimit="4"/><path stroke-linecap="round" transform="matrix(0.749999, -0.00133484, 0.00133484, 0.749999, 273.139229, 1034.523179)" fill="none" stroke-linejoin="miter" d="M 10.498819 10.498215 L 332.863945 10.499041 " stroke="#ffffff" stroke-width="21" stroke-opacity="1" stroke-miterlimit="4"/><path stroke-linecap="round" transform="matrix(0.75, 0.000000000000000765, -0.000000000000000765, 0.75, 530.67702, 773.999913)" fill="none" stroke-linejoin="miter" d="M 10.49835 10.500116 L 212.305659 10.500116 " stroke="#ffffff" stroke-width="21" stroke-opacity="1" stroke-miterlimit="4"/></svg>